<?xml version="1.0" encoding="iso-8859-1"?>
<!-- Generator: Adobe Illustrator 19.0.0, SVG Export Plug-In . SVG Version: 6.00 Build 0)  -->
<svg version="1.1" id="Layer_1" xmlns="http://www.w3.org/2000/svg" xmlns:xlink="http://www.w3.org/1999/xlink" x="0px" y="0px"
	 viewBox="0 0 392.663 392.663" style="enable-background:new 0 0 392.663 392.663;" xml:space="preserve">
<path style="fill:#FFFFFF;" d="M245.43,25.6c-2.069-2.392-5.107-3.814-8.275-3.814h-81.713c-3.168,0-6.206,1.422-8.275,3.814
	L90.731,91.345c-1.681,2.004-2.651,4.461-2.651,7.111v261.366c0,6.012,4.848,10.925,10.925,10.925h194.65
	c6.012,0,10.925-4.848,10.925-10.925V98.457c0-2.651-0.905-5.107-2.651-7.111L245.43,25.6z"/>
<path style="fill:#194F82;" d="M318.481,77.123L261.98,11.442C255.774,4.202,246.788,0,237.156,0h-81.713
	c-9.568,0-18.618,4.202-24.824,11.442L74.182,77.188c-5.107,5.947-7.887,13.511-7.887,21.333v261.43
	c0,18.036,14.675,32.711,32.711,32.711h194.651c18.036,0,32.711-14.675,32.711-32.711V98.457
	C326.368,90.634,323.588,83.071,318.481,77.123z M304.582,359.822c0,6.012-4.848,10.925-10.925,10.925H98.941
	c-6.012,0-10.925-4.848-10.925-10.925V98.457c0-2.651,0.905-5.107,2.651-7.111L147.103,25.6c2.069-2.392,5.107-3.814,8.275-3.814
	h81.842c3.168,0,6.206,1.422,8.275,3.814l56.436,65.745c1.681,2.004,2.651,4.461,2.651,7.111V359.822L304.582,359.822z"/>
<path style="fill:#FFC10D;" d="M232.178,43.507H160.42L109.867,102.4v69.107h28.638c6.012,0,10.925,4.848,10.925,10.925
	s-4.848,10.925-10.925,10.925h-28.638v32.517h15.321c6.012,0,10.925,4.848,10.925,10.925s-4.848,10.925-10.925,10.925h-15.321
	v101.107h172.865V102.271L232.178,43.507z"/>
<path d="M196.428,247.855c-0.065,0-0.065,0-0.129,0C195.911,247.855,196.299,247.855,196.428,247.855z"/>
<path d="M194.36,225.939c0.065,0,0.065,0,0.129,0C194.877,225.875,194.553,225.939,194.36,225.939z"/>
<path style="fill:#194F82;" d="M194.553,225.939c-0.259,0-0.129,0-0.129,0c-13.123-1.034-23.467-11.96-23.467-25.277
	c0-13.964,11.378-25.341,25.341-25.341s25.341,11.378,25.341,25.341c0,6.012,4.848,10.925,10.925,10.925
	c6.077,0,10.925-4.848,10.925-10.925c0-22.238-15.515-40.986-36.331-45.899v-12.412c0-6.012-4.848-10.925-10.925-10.925
	c-6.012,0-10.925,4.848-10.925,10.925v12.412c-20.816,4.913-36.331,23.596-36.331,45.899c0,26.053,21.204,47.192,47.192,47.192
	c0.259,0,0.129,0,0.129,0c13.123,1.034,25.277,11.83,25.277,25.212c0,13.964-11.378,25.341-25.341,25.341
	s-25.341-11.378-25.341-25.341c0-6.012-4.848-10.925-10.925-10.925c-6.012,0-10.925,4.848-10.925,10.925
	c0,22.238,15.515,40.986,36.331,45.899v12.347c0,6.012,4.848,10.925,10.925,10.925s10.925-4.848,10.925-10.925v-12.347
	c20.816-4.978,36.331-23.596,36.331-45.899C243.491,246.949,220.541,225.939,194.553,225.939z"/>
<path style="fill:#FFFFFF;" d="M196.299,53.333c-9.115,0-16.549,7.434-16.549,16.55s7.434,16.549,16.549,16.549
	s16.549-7.434,16.549-16.549C212.848,60.703,205.414,53.333,196.299,53.333z"/>
<path style="fill:#194F82;" d="M196.299,31.418c-21.204,0-38.4,17.261-38.4,38.4s17.261,38.335,38.4,38.335s38.4-17.261,38.4-38.4
	S217.503,31.418,196.299,31.418z M196.299,86.368c-9.115,0-16.549-7.434-16.549-16.549s7.434-16.549,16.549-16.549
	s16.549,7.434,16.549,16.549C212.848,78.998,205.414,86.368,196.299,86.368z"/>
<g>
</g>
<g>
</g>
<g>
</g>
<g>
</g>
<g>
</g>
<g>
</g>
<g>
</g>
<g>
</g>
<g>
</g>
<g>
</g>
<g>
</g>
<g>
</g>
<g>
</g>
<g>
</g>
<g>
</g>
</svg>
